# xmcd CD database file
#
# Track frame offsets:
#	150
#	19437
#	45503
#	62446
#	91021
#	95377
#	111538
#	134913
#	155043
#	181820
#	206539
#	232111
#	238044
#	264410
#
# Disc length: 3888 seconds
#
# Revision: 0
# Processed by: cddbd v1.5.1PL0 Copyright (c) Steve Scherf et al.
# Submitted via: CDex 1.50
#
DISCID=c30f2e0e
DTITLE=Nico Wayne Toussaint - Transatlantic Live CD2
DYEAR=2004
DGENRE=Blues
TTITLE0=Blow Wind Blow
TTITLE1=Blues In My Sleep
TTITLE2=Any Time You Want
TTITLE3=Barbara
TTITLE4=Introduction
TTITLE5=R.J.'s shuffle
TTITLE6=Love Me Or Leave Me
TTITLE7=You Don't Have To Go
TTITLE8=The Same Thing
TTITLE9=Midnight Creeper
TTITLE10=Give Me A Kiss Baby
TTITLE11=Introduction
TTITLE12=Walking Down College Street
TTITLE13=Mighty Long Time
EXTD=YEAR: 2004
EXTT0=
EXTT1=
EXTT2=
EXTT3=
EXTT4=
EXTT5=
EXTT6=
EXTT7=
EXTT8=
EXTT9=
EXTT10=
EXTT11=
EXTT12=
EXTT13=
PLAYORDER=
